<svg width="19" height="29" viewBox="0 0 19 29" fill="none" xmlns="http://www.w3.org/2000/svg">
<g clip-path="url(#clip0_5_3446)">
<path d="M13.3346 10.6749H11.5641L9.48628 8.58242C9.20826 8.31903 8.78392 8.31903 8.50591 8.58242C8.24252 8.86043 8.24252 9.28477 8.50591 9.56279L9.61797 10.6749H5.62332L6.73539 9.56279C6.99877 9.28477 6.99877 8.86043 6.73539 8.58242C6.472 8.31903 6.03303 8.31903 5.76965 8.58242L3.67722 10.6749H1.9067C1.14581 10.6749 0.53125 11.2894 0.53125 12.0503V14.0988C0.53125 14.4793 0.83853 14.7866 1.21897 14.7866H1.54089L2.21398 19.1177C2.34567 20.0542 3.15045 20.7419 4.10156 20.7273H11.1544C12.0908 20.7419 12.8956 20.0542 13.0273 19.1177L13.7004 14.7866H14.0223C14.4028 14.7866 14.71 14.4793 14.71 14.0988V12.0503C14.71 11.2894 14.0955 10.6749 13.3346 10.6749ZM1.9067 13.4111V12.0503H13.3346V13.4111H1.9067ZM12.3103 14.7866L11.6811 18.9129C11.6372 19.1763 11.4178 19.3665 11.1544 19.3665H4.10156C3.83817 19.3665 3.60405 19.1763 3.57479 18.9129L2.93096 14.7866H12.3103ZM5.11119 17.7569V16.3961C5.11119 16.0157 5.41847 15.7084 5.79891 15.7084C6.16472 15.7084 6.472 16.0157 6.472 16.3961V17.7569C6.472 18.1374 6.16472 18.4447 5.79891 18.4447C5.41847 18.4447 5.11119 18.1374 5.11119 17.7569ZM8.30105 17.7569V16.3961C8.30105 16.0157 8.60833 15.7084 8.98878 15.7084C9.36922 15.7084 9.6765 16.0157 9.6765 16.3961V17.7569C9.6765 18.1374 9.36922 18.4447 8.98878 18.4447C8.60833 18.4447 8.30105 18.1374 8.30105 17.7569Z" fill="#131313"/>
</g>
<defs>
<clipPath id="clip0_5_3446">
<rect width="18.3281" height="28" fill="white" transform="matrix(1 0 0 -1 0.53125 28.1719)"/>
</clipPath>
</defs>
</svg>
