<svg width="36" height="37" viewBox="0 0 36 37" fill="none" xmlns="http://www.w3.org/2000/svg">
<rect y="0.09375" width="36" height="36" rx="18" fill="#C74817"/>
<path d="M18.6 14.3008C16.35 14.3008 14.557 16.1289 14.557 18.3438C14.557 20.5938 16.35 22.3867 18.6 22.3867C20.8148 22.3867 22.643 20.5938 22.643 18.3438C22.643 16.1289 20.8148 14.3008 18.6 14.3008ZM18.6 20.9805C17.1586 20.9805 15.9633 19.8203 15.9633 18.3438C15.9633 16.9023 17.1234 15.7422 18.6 15.7422C20.0414 15.7422 21.2016 16.9023 21.2016 18.3438C21.2016 19.8203 20.0414 20.9805 18.6 20.9805ZM23.7328 14.1602C23.7328 13.6328 23.3109 13.2109 22.7836 13.2109C22.2563 13.2109 21.8344 13.6328 21.8344 14.1602C21.8344 14.6875 22.2563 15.1094 22.7836 15.1094C23.3109 15.1094 23.7328 14.6875 23.7328 14.1602ZM26.4047 15.1094C26.3344 13.8438 26.0531 12.7188 25.1391 11.8047C24.225 10.8906 23.1 10.6094 21.8344 10.5391C20.5336 10.4688 16.6313 10.4688 15.3305 10.5391C14.0648 10.6094 12.975 10.8906 12.0258 11.8047C11.1117 12.7188 10.8305 13.8438 10.7602 15.1094C10.6898 16.4102 10.6898 20.3125 10.7602 21.6133C10.8305 22.8789 11.1117 23.9688 12.0258 24.918C12.975 25.832 14.0648 26.1133 15.3305 26.1836C16.6313 26.2539 20.5336 26.2539 21.8344 26.1836C23.1 26.1133 24.225 25.832 25.1391 24.918C26.0531 23.9688 26.3344 22.8789 26.4047 21.6133C26.475 20.3125 26.475 16.4102 26.4047 15.1094ZM24.7172 22.9844C24.4711 23.6875 23.9086 24.2148 23.2406 24.4961C22.1859 24.918 19.725 24.8125 18.6 24.8125C17.4398 24.8125 14.9789 24.918 13.9594 24.4961C13.2563 24.2148 12.7289 23.6875 12.4477 22.9844C12.0258 21.9648 12.1313 19.5039 12.1313 18.3438C12.1313 17.2188 12.0258 14.7578 12.4477 13.7031C12.7289 13.0352 13.2563 12.5078 13.9594 12.2266C14.9789 11.8047 17.4398 11.9102 18.6 11.9102C19.725 11.9102 22.1859 11.8047 23.2406 12.2266C23.9086 12.4727 24.4359 13.0352 24.7172 13.7031C25.1391 14.7578 25.0336 17.2188 25.0336 18.3438C25.0336 19.5039 25.1391 21.9648 24.7172 22.9844Z" fill="white"/>
</svg>
