<svg width="42" height="117" viewBox="0 0 42 117" fill="none" xmlns="http://www.w3.org/2000/svg">
<path d="M20.4349 51.8217H17.8132L14.7366 48.7233C14.3249 48.3333 13.6966 48.3333 13.2849 48.7233C12.8949 49.135 12.8949 49.7633 13.2849 50.175L14.9316 51.8217H9.01656L10.6632 50.175C11.0532 49.7633 11.0532 49.135 10.6632 48.7233C10.2732 48.3333 9.62323 48.3333 9.23323 48.7233L6.1349 51.8217H3.51323C2.38656 51.8217 1.47656 52.7317 1.47656 53.8583V56.8917C1.47656 57.455 1.93156 57.91 2.4949 57.91H2.97156L3.96823 64.3233C4.16323 65.71 5.3549 66.7283 6.76323 66.7067H17.2066C18.5932 66.7283 19.7849 65.71 19.9799 64.3233L20.9766 57.91H21.4532C22.0166 57.91 22.4716 57.455 22.4716 56.8917V53.8583C22.4716 52.7317 21.5616 51.8217 20.4349 51.8217ZM3.51323 55.8733V53.8583H20.4349V55.8733H3.51323ZM18.9182 57.91L17.9866 64.02C17.9216 64.41 17.5966 64.6917 17.2066 64.6917H6.76323C6.37323 64.6917 6.02656 64.41 5.98323 64.02L5.0299 57.91H18.9182ZM8.25823 62.3083V60.2933C8.25823 59.73 8.71323 59.275 9.27656 59.275C9.81823 59.275 10.2732 59.73 10.2732 60.2933V62.3083C10.2732 62.8717 9.81823 63.3267 9.27656 63.3267C8.71323 63.3267 8.25823 62.8717 8.25823 62.3083ZM12.9816 62.3083V60.2933C12.9816 59.73 13.4366 59.275 13.9999 59.275C14.5632 59.275 15.0182 59.73 15.0182 60.2933V62.3083C15.0182 62.8717 14.5632 63.3267 13.9999 63.3267C13.4366 63.3267 12.9816 62.8717 12.9816 62.3083Z" fill="#5B5858"/>
<rect x="17.3438" y="46.5" width="14" height="14" rx="7" fill="#C74817"/>
<path d="M27.183 53.5737C27.183 54.2075 27.1329 54.7733 27.0326 55.271C26.9359 55.7687 26.7784 56.1912 26.56 56.5386C26.3451 56.8859 26.0622 57.1509 25.7113 57.3335C25.3604 57.5161 24.9343 57.6074 24.433 57.6074C23.8028 57.6074 23.2854 57.4481 22.8808 57.1294C22.4761 56.8071 22.1771 56.3452 21.9838 55.7437C21.7904 55.1385 21.6937 54.4152 21.6937 53.5737C21.6937 52.7251 21.7815 52 21.9569 51.3984C22.136 50.7933 22.426 50.3296 22.8271 50.0073C23.2281 49.6851 23.7634 49.5239 24.433 49.5239C25.0596 49.5239 25.5753 49.6851 25.9799 50.0073C26.3881 50.326 26.6907 50.7879 26.8876 51.3931C27.0845 51.9946 27.183 52.7215 27.183 53.5737ZM23.3427 53.5737C23.3427 54.1717 23.3749 54.6712 23.4394 55.0723C23.5074 55.4697 23.6202 55.7687 23.7777 55.9692C23.9353 56.1698 24.1537 56.27 24.433 56.27C24.7087 56.27 24.9254 56.1715 25.0829 55.9746C25.244 55.7741 25.3586 55.4751 25.4267 55.0776C25.4947 54.6766 25.5287 54.1753 25.5287 53.5737C25.5287 52.9757 25.4947 52.4762 25.4267 52.0752C25.3586 51.6742 25.244 51.3734 25.0829 51.1729C24.9254 50.9688 24.7087 50.8667 24.433 50.8667C24.1537 50.8667 23.9353 50.9688 23.7777 51.1729C23.6202 51.3734 23.5074 51.6742 23.4394 52.0752C23.3749 52.4762 23.3427 52.9757 23.3427 53.5737Z" fill="white"/>
</svg>
