<svg width="36" height="37" viewBox="0 0 36 37" fill="none" xmlns="http://www.w3.org/2000/svg">
<rect y="0.09375" width="36" height="36" rx="18" fill="#C74817"/>
<path d="M25.7367 14.6875C26.4398 14.1602 27.0727 13.5273 27.5648 12.7891C26.932 13.0703 26.1938 13.2812 25.4555 13.3516C26.2289 12.8945 26.7914 12.1914 27.0727 11.3125C26.3695 11.7344 25.5609 12.0508 24.7523 12.2266C24.0492 11.4883 23.1 11.0664 22.0453 11.0664C20.0063 11.0664 18.3539 12.7188 18.3539 14.7578C18.3539 15.0391 18.3891 15.3203 18.4594 15.6016C15.4008 15.4258 12.6586 13.9492 10.8305 11.7344C10.5141 12.2617 10.3383 12.8945 10.3383 13.5977C10.3383 14.8633 10.9711 15.9883 11.9906 16.6562C11.393 16.6211 10.7953 16.4805 10.3031 16.1992V16.2344C10.3031 18.0273 11.5688 19.5039 13.2563 19.8555C12.975 19.9258 12.6234 19.9961 12.307 19.9961C12.0609 19.9961 11.85 19.9609 11.6039 19.9258C12.0609 21.4023 13.432 22.457 15.0492 22.4922C13.7836 23.4766 12.2016 24.0742 10.4789 24.0742C10.1625 24.0742 9.88125 24.0391 9.6 24.0039C11.2172 25.0586 13.1508 25.6562 15.2602 25.6562C22.0453 25.6562 25.7367 20.0664 25.7367 15.1797C25.7367 15.0039 25.7367 14.8633 25.7367 14.6875Z" fill="white"/>
</svg>
